<svg width="512" height="512" viewBox="0 0 512 512" fill="none" xmlns="http://www.w3.org/2000/svg">
<rect width="512" height="512" fill="white"/>
<path d="M307.157 314.917C191.261 359.765 87.9957 372.341 76.5232 342.989C70.6904 328.095 89.6438 305.261 124.872 280.507C125.091 284.041 125.413 287.55 125.864 291.034C105.275 308.143 95.0903 323.459 99.275 334.178C109.511 360.341 201.575 349.136 304.904 309.142C408.234 269.148 483.7 215.528 473.464 189.364C468.545 176.801 444.75 172.857 409.908 176.584C407.989 174.035 405.981 171.538 403.895 169.105C454.304 160.819 489.765 164.072 496.228 180.567C507.714 209.919 423.067 270.07 307.17 314.917H307.157ZM472.768 361.379C471.365 362.442 469.356 362.16 468.287 360.751C450.48 337.277 423.337 323.818 393.813 323.818C356.987 323.818 323.536 345.46 308.574 378.962L307.608 381.113L305.265 380.831C302.509 380.498 299.934 380.332 297.372 380.332C284.47 380.332 272.122 384.2 261.731 391.012C268.684 398.415 274.581 406.918 279.062 416.369C281.225 416.177 283.311 416.074 285.397 416.074C297.089 416.074 308.51 418.905 318.746 424.309H319.081C319.003 424.309 318.913 424.334 318.823 424.347C320.381 425.167 321.913 426.051 323.42 426.998C334.48 433.952 343.391 443.774 349.21 455.403C349.996 456.978 349.352 458.886 347.768 459.667C347.305 459.898 346.828 460 346.352 460C345.18 460 344.047 459.36 343.481 458.233C332.433 436.155 310.183 422.426 285.397 422.426C282.835 422.426 280.247 422.593 277.504 422.926L275.161 423.208L274.195 421.056C259.233 387.555 225.781 365.912 188.956 365.912C170.891 365.912 153.367 371.06 138.276 380.793C123.572 390.282 111.881 403.614 104.464 419.366C103.717 420.954 101.812 421.645 100.215 420.902C98.6184 420.16 97.9231 418.264 98.6699 416.676C106.589 399.849 119.078 385.608 134.787 375.466C141.47 371.163 148.59 367.705 156.019 365.118C135.611 338.046 124.563 305.3 124.563 270.851C124.563 228.769 141.045 189.211 170.956 159.462C200.866 129.713 240.653 113.321 282.951 113.321C325.248 113.321 365.035 129.713 394.946 159.462C424.857 189.211 441.338 228.782 441.338 270.851C441.338 289.587 438.067 307.823 431.797 324.932C434.218 325.931 436.6 327.019 438.956 328.21C452.373 335.011 464.27 344.935 473.373 356.935C474.442 358.331 474.159 360.329 472.742 361.391L472.768 361.379ZM161.196 363.466C165.148 362.326 169.179 361.443 173.26 360.802C152.234 335.536 140.787 304.07 140.787 270.851C140.787 233.085 155.582 197.573 182.428 170.859C209.274 144.158 244.979 129.444 282.964 129.444C320.948 129.444 356.64 144.158 383.499 170.859C410.346 197.56 425.14 233.072 425.14 270.851C425.14 287.896 422.114 304.467 416.346 319.989C419.964 320.821 423.531 321.858 427.046 323.101C433.097 306.581 436.252 288.959 436.252 270.851C436.252 230.127 420.312 191.849 391.353 163.047C362.408 134.259 323.909 118.392 282.976 118.392C242.044 118.392 203.545 134.246 174.587 163.047C145.641 191.836 129.688 230.127 129.688 270.851C129.688 304.775 140.761 336.995 161.196 363.466ZM393.813 317.453C400.186 317.453 406.431 318.042 412.547 319.195C418.29 303.942 421.303 287.627 421.303 270.851C421.303 234.097 406.908 199.545 380.782 173.561C354.657 147.577 319.918 133.26 282.964 133.26C246.01 133.26 211.27 147.577 185.145 173.561C159.019 199.545 144.624 234.097 144.624 270.851C144.624 303.968 156.316 335.292 177.741 360.188C181.437 359.778 185.183 359.56 188.93 359.56C214.721 359.56 238.954 369.511 257.096 386.441C268.749 378.501 282.719 373.98 297.346 373.98C299.432 373.98 301.518 374.083 303.681 374.275C320.111 339.685 355.223 317.466 393.787 317.466L393.813 317.453Z" fill="#B3B3B3"/>
<path d="M388.971 270.851C388.971 271.863 388.173 272.708 387.156 272.772L298.466 278.24L331.995 315.993C332.897 317.005 332.845 318.542 331.892 319.502C331.39 320.002 330.733 320.258 330.064 320.258C329.459 320.258 328.841 320.04 328.351 319.617L290.393 286.27L284.895 374.48C284.831 375.491 283.981 376.285 282.964 376.285C281.946 376.285 281.097 375.491 281.032 374.48L275.534 286.27L237.576 319.617C236.559 320.514 235.013 320.463 234.048 319.515C233.082 318.555 233.031 317.018 233.945 316.006L267.474 278.253L178.784 272.785C177.767 272.721 176.969 271.876 176.969 270.864C176.969 269.852 177.767 269.007 178.784 268.943L267.474 263.475L233.945 225.722C233.043 224.71 233.095 223.173 234.048 222.213C235.013 221.252 236.559 221.214 237.576 222.11L275.534 255.458L281.032 167.248C281.097 166.236 281.946 165.442 282.964 165.442C283.981 165.442 284.831 166.236 284.895 167.248L290.393 255.458L328.351 222.11C329.369 221.214 330.914 221.265 331.879 222.213C332.845 223.173 332.897 224.71 331.982 225.722L298.453 263.475L387.143 268.943C388.16 269.007 388.959 269.852 388.959 270.864L388.971 270.851Z" fill="#FFD580"/>
<path d="M31.9466 223.583C31.0968 223.583 30.247 223.251 29.6161 222.585C28.4057 221.304 28.4572 219.293 29.7448 218.09L56.1535 193.309C57.4411 192.106 59.4625 192.157 60.6729 193.437C61.8832 194.718 61.8318 196.729 60.5442 197.932L34.1355 222.713C33.5175 223.289 32.732 223.583 31.9466 223.583ZM83.2574 175.304L160.101 101.68C161.376 100.464 161.414 98.4531 160.191 97.1853C158.968 95.9174 156.947 95.879 155.672 97.0956L78.8281 170.719C77.5533 171.936 77.5147 173.946 78.7379 175.214C79.3688 175.867 80.2057 176.187 81.0427 176.187C81.8796 176.187 82.6393 175.893 83.2574 175.304ZM93.8671 204.822L160.101 141.431C161.376 140.214 161.414 138.204 160.191 136.936C158.968 135.668 156.947 135.63 155.672 136.846L89.4378 200.238C88.1631 201.454 88.1245 203.465 89.3477 204.733C89.9786 205.386 90.8155 205.706 91.6525 205.706C92.4894 205.706 93.2491 205.411 93.8671 204.822ZM184.424 118.149L246.885 58.3566C248.16 57.14 248.198 55.1294 246.975 53.8615C245.752 52.5937 243.73 52.5553 242.456 53.7719L179.994 113.565C178.72 114.781 178.681 116.792 179.904 118.06C180.535 118.713 181.372 119.033 182.209 119.033C183.046 119.033 183.806 118.738 184.424 118.149ZM72.4415 264.589L128.22 212.25C129.508 211.046 129.559 209.036 128.349 207.755C127.139 206.474 125.117 206.423 123.83 207.627L68.0508 259.966C66.7632 261.17 66.7117 263.181 67.9221 264.461C68.553 265.127 69.4028 265.46 70.2526 265.46C71.038 265.46 71.8235 265.178 72.4415 264.589ZM221.519 123.272L245.945 101.757C247.271 100.592 247.387 98.5812 246.216 97.2621C245.044 95.9431 243.022 95.8278 241.696 96.9932L217.27 118.508C215.944 119.673 215.828 121.684 217 123.003C217.631 123.707 218.507 124.079 219.395 124.079C220.155 124.079 220.901 123.81 221.519 123.285V123.272ZM27.7491 350.635L79.2658 302.291C80.5534 301.087 80.6049 299.077 79.3946 297.796C78.1843 296.515 76.1627 296.464 74.8751 297.668L23.3584 346.012C22.0708 347.216 22.0193 349.226 23.2296 350.507C23.8605 351.173 24.7103 351.506 25.5601 351.506C26.3456 351.506 27.131 351.224 27.7491 350.635ZM127.911 247.89L101.515 272.657C100.228 273.861 100.176 275.872 101.387 277.152C102.018 277.818 102.867 278.151 103.717 278.151C104.503 278.151 105.288 277.869 105.906 277.28L127.242 257.251L127.898 247.89H127.911ZM20.59 398.454L66.0808 355.168C67.3555 353.952 67.4071 351.941 66.1838 350.673C64.9606 349.405 62.9391 349.354 61.6644 350.571L16.1736 393.856C14.8988 395.073 14.8474 397.083 16.0706 398.351C16.7015 399.004 17.5384 399.337 18.3754 399.337C19.1737 399.337 19.9719 399.043 20.59 398.454ZM72.4415 389.348L93.6611 369.434C94.9487 368.231 95.0002 366.22 93.7899 364.939C92.5796 363.659 90.558 363.608 89.2704 364.811L68.0508 384.725C66.7632 385.929 66.7117 387.94 67.9221 389.22C68.553 389.886 69.4028 390.219 70.2526 390.219C71.038 390.219 71.8235 389.937 72.4415 389.348ZM124.808 340.198L132.186 333.372C133.474 332.181 133.551 330.158 132.353 328.877C131.156 327.596 129.122 327.519 127.834 328.71L120.456 335.536C119.168 336.727 119.091 338.751 120.289 340.031C120.92 340.71 121.769 341.043 122.632 341.043C123.417 341.043 124.19 340.761 124.808 340.198ZM86.8883 287.052C84.8926 287.052 83.2702 288.665 83.2702 290.65C83.2702 292.635 84.8926 294.249 86.8883 294.249C88.8841 294.249 90.5065 292.635 90.5065 290.65C90.5065 288.665 88.8841 287.052 86.8883 287.052ZM94.7298 279.265C92.7341 279.265 91.1117 280.879 91.1117 282.864C91.1117 284.849 92.7341 286.462 94.7298 286.462C96.7256 286.462 98.348 284.849 98.348 282.864C98.348 280.879 96.7256 279.265 94.7298 279.265ZM65.5786 184.563C63.5828 184.563 61.9605 186.176 61.9605 188.161C61.9605 190.146 63.5828 191.76 65.5786 191.76C67.5744 191.76 69.1968 190.146 69.1968 188.161C69.1968 186.176 67.5744 184.563 65.5786 184.563ZM73.4072 176.764C71.4114 176.764 69.7891 178.377 69.7891 180.362C69.7891 182.347 71.4114 183.961 73.4072 183.961C75.403 183.961 77.0254 182.347 77.0254 180.362C77.0254 178.377 75.403 176.764 73.4072 176.764ZM166.101 128.305C164.106 128.305 162.483 129.918 162.483 131.903C162.483 133.888 164.106 135.502 166.101 135.502C168.097 135.502 169.719 133.888 169.719 131.903C169.719 129.918 168.097 128.305 166.101 128.305ZM173.943 120.506C171.947 120.506 170.325 122.119 170.325 124.104C170.325 126.089 171.947 127.703 173.943 127.703C175.939 127.703 177.561 126.089 177.561 124.104C177.561 122.119 175.939 120.506 173.943 120.506ZM83.2445 206.41C81.2487 206.41 79.6263 208.024 79.6263 210.009C79.6263 211.994 81.2487 213.607 83.2445 213.607C85.2402 213.607 86.8626 211.994 86.8626 210.009C86.8626 208.024 85.2402 206.41 83.2445 206.41ZM338.575 87.1835C336.579 87.1835 334.957 88.7971 334.957 90.7821C334.957 92.7671 336.579 94.3807 338.575 94.3807C340.571 94.3807 342.193 92.7671 342.193 90.7821C342.193 88.7971 340.571 87.1835 338.575 87.1835ZM405.105 107.174C403.109 107.174 401.487 108.788 401.487 110.773C401.487 112.758 403.109 114.371 405.105 114.371C407.101 114.371 408.723 112.758 408.723 110.773C408.723 108.788 407.101 107.174 405.105 107.174ZM412.934 99.3751C410.938 99.3751 409.315 100.989 409.315 102.974C409.315 104.959 410.938 106.572 412.934 106.572C414.929 106.572 416.552 104.959 416.552 102.974C416.552 100.989 414.929 99.3751 412.934 99.3751ZM252.448 87.1835C250.452 87.1835 248.829 88.7971 248.829 90.7821C248.829 92.7671 250.452 94.3807 252.448 94.3807C254.443 94.3807 256.066 92.7671 256.066 90.7821C256.066 88.7971 254.443 87.1835 252.448 87.1835ZM260.289 79.3973C258.293 79.3973 256.671 81.0109 256.671 82.9959C256.671 84.9809 258.293 86.5945 260.289 86.5945C262.285 86.5945 263.907 84.9809 263.907 82.9959C263.907 81.0109 262.285 79.3973 260.289 79.3973ZM375.22 142.763L396.633 122.836C397.92 121.632 397.985 119.622 396.787 118.341C395.577 117.061 393.555 116.997 392.268 118.188L369.825 139.075C371.64 140.266 373.443 141.495 375.22 142.763ZM346.79 126.576L400.637 76.3878C401.925 75.184 401.989 73.1734 400.779 71.8928C399.568 70.6122 397.547 70.5482 396.259 71.7519L340.287 123.912C342.463 124.757 344.627 125.641 346.777 126.589L346.79 126.576ZM315.939 116.728L331.957 101.693C333.244 100.489 333.296 98.4787 332.085 97.1981C330.875 95.9174 328.854 95.8662 327.566 97.07L308.136 115.293C310.75 115.703 313.351 116.19 315.926 116.728H315.939ZM274.002 113.577L332.819 58.3822C334.107 57.1784 334.158 55.1678 332.948 53.8872C331.738 52.6065 329.716 52.5553 328.429 53.7591L263.74 114.461C267.139 114.051 270.564 113.757 274.002 113.565V113.577Z" fill="#66C1FF"/>
</svg>
