<?xml version="1.0" encoding="UTF-8" standalone="no"?>
<svg
   width="158"
   height="158"
   viewBox="0 0 158 158"
   fill="none"
   version="1.1"
   id="svg1138"
   sodipodi:docname="logoicon_white.svg"
   xml:space="preserve"
   inkscape:version="1.2.2 (732a01da63, 2022-12-09)"
   xmlns:inkscape="http://www.inkscape.org/namespaces/inkscape"
   xmlns:sodipodi="http://sodipodi.sourceforge.net/DTD/sodipodi-0.dtd"
   xmlns="http://www.w3.org/2000/svg"
   xmlns:svg="http://www.w3.org/2000/svg"><defs
     id="defs1142" /><sodipodi:namedview
     id="namedview1140"
     pagecolor="#505050"
     bordercolor="#eeeeee"
     borderopacity="1"
     inkscape:showpageshadow="0"
     inkscape:pageopacity="0"
     inkscape:pagecheckerboard="0"
     inkscape:deskcolor="#505050"
     showgrid="false"
     inkscape:zoom="6.5"
     inkscape:cx="78.153846"
     inkscape:cy="84.384615"
     inkscape:window-width="3840"
     inkscape:window-height="2066"
     inkscape:window-x="2869"
     inkscape:window-y="-11"
     inkscape:window-maximized="1"
     inkscape:current-layer="svg1138" /><g
     class="Group 305"
     id="g1136"
     style="display:inline"><g
       class="Group 304"
       id="g1134"
       style="display:inline"><g
         class="dot"
         id="g1092"
         style="display:inline;fill:#66c1ff;fill-opacity:1"><path
           class="Vector"
           d="m 23.5046,91.441 c 0.654,0 1.1842,-0.5296 1.1842,-1.1828 0,-0.6533 -0.5302,-1.1829 -1.1842,-1.1829 -0.6541,0 -1.1843,0.5296 -1.1843,1.1829 0,0.6532 0.5302,1.1828 1.1843,1.1828 z"
           fill="#ffffff"
           id="path1068"
           style="fill:#66c1ff;fill-opacity:1" /><path
           class="Vector_2"
           d="m 26.0719,88.8764 c 0.6541,0 1.1843,-0.5296 1.1843,-1.1829 0,-0.6533 -0.5302,-1.1828 -1.1843,-1.1828 -0.654,0 -1.1842,0.5295 -1.1842,1.1828 0,0.6533 0.5302,1.1829 1.1842,1.1829 z"
           fill="#ffffff"
           id="path1070"
           style="fill:#66c1ff;fill-opacity:1" /><path
           class="Vector_3"
           d="m 16.5182,57.705 c 0.6541,0 1.1843,-0.5296 1.1843,-1.1829 0,-0.6533 -0.5302,-1.1829 -1.1843,-1.1829 -0.654,0 -1.1842,0.5296 -1.1842,1.1829 0,0.6533 0.5302,1.1829 1.1842,1.1829 z"
           fill="#ffffff"
           id="path1072"
           style="fill:#66c1ff;fill-opacity:1" /><path
           class="Vector_4"
           d="m 19.0856,55.1404 c 0.6541,0 1.1843,-0.5296 1.1843,-1.1829 0,-0.6533 -0.5302,-1.1829 -1.1843,-1.1829 -0.654,0 -1.1842,0.5296 -1.1842,1.1829 0,0.6533 0.5302,1.1829 1.1842,1.1829 z"
           fill="#ffffff"
           id="path1074"
           style="fill:#66c1ff;fill-opacity:1" /><path
           class="Vector_5"
           d="m 49.4655,39.1893 c 0.654,0 1.1842,-0.5296 1.1842,-1.1829 0,-0.6532 -0.5302,-1.1828 -1.1842,-1.1828 -0.654,0 -1.1843,0.5296 -1.1843,1.1828 0,0.6533 0.5303,1.1829 1.1843,1.1829 z"
           fill="#ffffff"
           id="path1076"
           style="fill:#66c1ff;fill-opacity:1" /><path
           class="Vector_6"
           d="m 52.0329,36.6247 c 0.654,0 1.1842,-0.5296 1.1842,-1.1829 0,-0.6533 -0.5302,-1.1829 -1.1842,-1.1829 -0.6541,0 -1.1843,0.5296 -1.1843,1.1829 0,0.6533 0.5302,1.1829 1.1843,1.1829 z"
           fill="#ffffff"
           id="path1078"
           style="fill:#66c1ff;fill-opacity:1" /><path
           class="Vector_7"
           d="m 22.3073,64.8965 c 0.654,0 1.1842,-0.5296 1.1842,-1.1829 0,-0.6533 -0.5302,-1.1829 -1.1842,-1.1829 -0.654,0 -1.1843,0.5296 -1.1843,1.1829 0,0.6533 0.5303,1.1829 1.1843,1.1829 z"
           fill="#ffffff"
           id="path1080"
           style="fill:#66c1ff;fill-opacity:1" /><path
           class="Vector_8"
           d="m 105.993,25.6564 c 0.654,0 1.184,-0.5296 1.184,-1.1829 0,-0.6533 -0.53,-1.1829 -1.184,-1.1829 -0.654,0 -1.184,0.5296 -1.184,1.1829 0,0.6533 0.53,1.1829 1.184,1.1829 z"
           fill="#ffffff"
           id="path1082"
           style="fill:#66c1ff;fill-opacity:1" /><path
           class="Vector_9"
           d="m 127.796,32.2344 c 0.654,0 1.184,-0.5296 1.184,-1.1829 0,-0.6532 -0.53,-1.1828 -1.184,-1.1828 -0.654,0 -1.185,0.5296 -1.185,1.1828 0,0.6533 0.531,1.1829 1.185,1.1829 z"
           fill="#ffffff"
           id="path1084"
           style="fill:#66c1ff;fill-opacity:1" /><path
           class="Vector_10"
           d="m 130.364,29.6677 c 0.654,0 1.184,-0.5296 1.184,-1.1829 0,-0.6533 -0.53,-1.1829 -1.184,-1.1829 -0.654,0 -1.184,0.5296 -1.184,1.1829 0,0.6533 0.53,1.1829 1.184,1.1829 z"
           fill="#ffffff"
           id="path1086"
           style="fill:#66c1ff;fill-opacity:1" /><path
           class="Vector_11"
           d="m 77.7663,25.6564 c 0.654,0 1.1842,-0.5296 1.1842,-1.1829 0,-0.6533 -0.5302,-1.1829 -1.1842,-1.1829 -0.6541,0 -1.1843,0.5296 -1.1843,1.1829 0,0.6533 0.5302,1.1829 1.1843,1.1829 z"
           fill="#ffffff"
           id="path1088"
           style="fill:#66c1ff;fill-opacity:1" /><path
           class="Vector_12"
           d="m 80.3337,23.0896 c 0.654,0 1.1842,-0.5296 1.1842,-1.1828 0,-0.6533 -0.5302,-1.1829 -1.1842,-1.1829 -0.6541,0 -1.1843,0.5296 -1.1843,1.1829 0,0.6532 0.5302,1.1828 1.1843,1.1828 z"
           fill="#ffffff"
           id="path1090"
           style="fill:#66c1ff;fill-opacity:1" /></g><g
         class="rain"
         id="g1132"
         style="display:inline;fill:#66c1ff;fill-opacity:1"
         inkscape:label="g1132"><g
           class="Group"
           id="g1102"
           style="fill:#66c1ff;fill-opacity:1"><path
             class="Vector_13"
             d="m 5.497,68.1813 c -0.27877,0 -0.55545,-0.111 -0.76295,-0.3287 C 4.3358,67.4318 4.35676,66.7702 4.77806,66.3724 l 8.65654,-8.1566 c 0.4213,-0.3978 1.0837,-0.3768 1.4819,0.044 0.3982,0.4208 0.3773,1.0824 -0.044,1.4801 L 6.21593,67.8966 C 6.01262,68.0871 5.75481,68.1813 5.497,68.1813 Z"
             fill="#ffffff"
             id="path1094"
             style="fill:#66c1ff;fill-opacity:1" /><path
             class="Vector_14"
             d="m 21.5836,52.5841 c -0.2746,0 -0.5491,-0.1068 -0.7546,-0.3203 -0.4024,-0.4167 -0.3898,-1.0782 0.0273,-1.4802 L 46.0421,26.5482 c 0.4171,-0.4019 1.0794,-0.3894 1.4818,0.0272 0.4025,0.4167 0.3899,1.0782 -0.0272,1.4802 L 22.3109,52.291 c -0.2033,0.1947 -0.4653,0.2931 -0.7273,0.2931 z"
             fill="#ffffff"
             id="path1096"
             style="fill:#66c1ff;fill-opacity:1" /><path
             class="Vector_15"
             d="m 25.0631,62.3025 c -0.2746,0 -0.5492,-0.1068 -0.7546,-0.3203 -0.4024,-0.4166 -0.3878,-1.0803 0.0293,-1.4802 L 46.0442,39.6373 c 0.4171,-0.3998 1.0816,-0.3873 1.4819,0.0293 0.4024,0.4167 0.3878,1.0803 -0.0293,1.4802 L 25.7904,62.0115 c -0.2033,0.1947 -0.4653,0.2931 -0.7273,0.2931 z"
             fill="#ffffff"
             id="path1098"
             style="fill:#66c1ff;fill-opacity:1" /><path
             class="Vector_16"
             d="m 54.7428,33.7732 c -0.2746,0 -0.5492,-0.1068 -0.7546,-0.3203 -0.4024,-0.4167 -0.3878,-1.0803 0.0293,-1.4802 L 74.4873,12.293 c 0.4171,-0.402 1.0794,-0.3873 1.4818,0.0293 0.4025,0.4166 0.3878,1.0803 -0.0293,1.4802 L 55.4659,33.4822 c -0.2033,0.1947 -0.4653,0.2931 -0.7273,0.2931 z"
             fill="#ffffff"
             id="path1100"
             style="fill:#66c1ff;fill-opacity:1" /></g><g
           class="Group_2"
           id="g1108"
           style="display:inline;fill:#66c1ff;fill-opacity:1"><path
             class="Vector_17"
             d="m 18.0478,81.9655 c -0.2788,0 -0.5555,-0.111 -0.763,-0.3287 -0.3982,-0.4208 -0.3773,-1.0824 0.044,-1.4802 L 35.6082,62.9285 c 0.4213,-0.3978 1.0837,-0.3769 1.4819,0.0439 0.3983,0.4209 0.3773,1.0824 -0.044,1.4802 L 18.7667,81.6807 c -0.2033,0.1905 -0.4611,0.2848 -0.7189,0.2848 z"
             fill="#ffffff"
             id="path1104"
             style="fill:#66c1ff;fill-opacity:1" /><path
             class="Vector_18"
             d="m 66.9313,35.4292 c -0.2893,0 -0.5785,-0.1193 -0.7861,-0.3538 -0.3835,-0.4334 -0.3437,-1.0949 0.0902,-1.4781 l 8.0068,-7.0805 c 0.4338,-0.3831 1.0962,-0.3433 1.4798,0.0901 0.3835,0.4333 0.3437,1.0949 -0.0902,1.478 l -8.0068,7.0805 c -0.1991,0.1759 -0.4464,0.2638 -0.6937,0.2638 z"
             fill="#ffffff"
             id="path1106"
             style="fill:#66c1ff;fill-opacity:1" /></g><g
           class="Group_3"
           id="g1116"
           style="display:inline;fill:#66c1ff;fill-opacity:1"><path
             class="Vector_19"
             d="m 3.40129,110.285 c -0.27877,0 -0.55544,-0.111 -0.76295,-0.328 -0.39824,-0.421 -0.37728,-1.083 0.04402,-1.48 L 19.5658,92.5632 c 0.4213,-0.3957 1.0836,-0.3769 1.4819,0.044 0.3982,0.4208 0.3773,1.0823 -0.044,1.4801 L 4.12023,110.001 c -0.20332,0.19 -0.46113,0.284 -0.71894,0.284 z"
             fill="#ffffff"
             id="path1110"
             style="fill:#66c1ff;fill-opacity:1" /><path
             class="Vector_20"
             d="m 36.7318,79.2647 -6.9944,6.5927 c -0.2033,0.1906 -0.4611,0.2848 -0.7189,0.2848 -0.2788,0 -0.5555,-0.111 -0.763,-0.3287 -0.3982,-0.4208 -0.3773,-1.0824 0.044,-1.4802 l 8.6482,-8.1503 z"
             fill="#ffffff"
             id="path1112"
             style="fill:#66c1ff;fill-opacity:1" /><path
             class="Vector_21"
             d="m 1.04749,126.031 c -0.276675,0 -0.551254,-0.109 -0.756664,-0.322 -0.400339,-0.419 -0.385667,-1.08 0.033537,-1.48 L 15.2333,109.982 c 0.4192,-0.4 1.0816,-0.385 1.4819,0.033 0.4004,0.419 0.3857,1.081 -0.0335,1.481 L 1.77271,125.742 c -0.20331,0.195 -0.46322,0.291 -0.72522,0.291 z"
             fill="#ffffff"
             id="path1114"
             style="fill:#66c1ff;fill-opacity:1" /></g><g
           class="Group_4"
           id="g1122"
           style="display:inline;fill:#66c1ff;fill-opacity:1"><path
             class="Vector_22"
             d="m 18.0478,123.029 c -0.2788,0 -0.5555,-0.111 -0.763,-0.329 -0.3982,-0.42 -0.3773,-1.082 0.044,-1.48 l 6.9546,-6.555 c 0.4213,-0.395 1.0837,-0.377 1.4819,0.044 0.3983,0.421 0.3773,1.083 -0.044,1.48 l -6.9546,6.555 c -0.2033,0.191 -0.4611,0.285 -0.7189,0.285 z"
             fill="#ffffff"
             id="path1118"
             style="fill:#66c1ff;fill-opacity:1" /><path
             class="Vector_23"
             d="m 35.2159,106.848 c -0.2809,0 -0.5618,-0.113 -0.7672,-0.333 -0.394,-0.423 -0.371,-1.087 0.0545,-1.48 l 2.4188,-2.247 c 0.4234,-0.393 1.0879,-0.37 1.4819,0.055 0.3941,0.423 0.371,1.086 -0.0545,1.48 l -2.4188,2.246 c -0.2012,0.189 -0.459,0.281 -0.7126,0.281 z"
             fill="#ffffff"
             id="path1120"
             style="fill:#66c1ff;fill-opacity:1" /></g><path
           class="Vector_24"
           d="m 118.003,41.5823 7.02,-6.5613 c 0.423,-0.3957 0.444,-1.0573 0.05,-1.4802 -0.396,-0.4229 -1.058,-0.4438 -1.482,-0.0481 l -7.355,6.8732 c 0.598,0.3915 1.185,0.7977 1.767,1.2164 z"
           fill="#ffffff"
           id="path1124"
           style="fill:#66c1ff;fill-opacity:1" /><path
           class="Vector_25"
           d="m 108.682,36.2562 17.651,-16.5184 c 0.423,-0.3957 0.444,-1.0572 0.048,-1.4801 -0.396,-0.4208 -1.059,-0.4439 -1.482,-0.0482 l -18.342,17.1674 c 0.714,0.2764 1.423,0.5695 2.125,0.8793 z"
           fill="#ffffff"
           id="path1126"
           style="fill:#66c1ff;fill-opacity:1" /><path
           class="Vector_26"
           d="m 98.5735,33.0112 5.2505,-4.9472 c 0.421,-0.3978 0.44,-1.0593 0.044,-1.4801 -0.398,-0.4209 -1.061,-0.4397 -1.482,-0.044 l -6.3655,6.0002 c 0.8573,0.1361 1.7083,0.2931 2.5551,0.4711 z"
           fill="#ffffff"
           id="path1128"
           style="fill:#66c1ff;fill-opacity:1" /><path
           class="Vector_27"
           d="M 84.8251,31.9748 104.1,13.8088 c 0.421,-0.3978 0.44,-1.0594 0.044,-1.4802 -0.398,-0.4208 -1.061,-0.4396 -1.482,-0.0439 L 81.4609,32.2658 c 1.113,-0.1339 2.2365,-0.2302 3.3662,-0.2931 z"
           fill="#ffffff"
           id="path1130"
           style="fill:#66c1ff;fill-opacity:1" /></g><g
         id="g5399"
         style="display:inline;fill:#b3b3b3;fill-opacity:1"><path
           class="planet_outer"
           d="m 157.657,54.0245 c -2.115,-5.4308 -13.739,-6.5006 -30.26,-3.7727 0.683,0.804 1.341,1.6246 1.97,2.4621 11.421,-1.2248 19.221,0.0712 20.833,4.2081 3.355,8.613 -21.38,26.264 -55.2452,39.4264 -33.8654,13.1626 -64.0396,16.8516 -67.3954,8.2386 -1.375,-3.528 1.9661,-8.5715 8.7132,-14.2011 -0.1467,-1.1452 -0.2536,-2.3009 -0.3249,-3.4628 -11.5449,8.144 -17.7575,15.6599 -15.8459,20.5629 3.7623,9.66 37.6068,5.523 75.5908,-9.2408 C 133.677,83.4812 161.42,63.6843 157.655,54.0245 Z"
           fill="#ffffff"
           id="path1064"
           style="display:inline;fill:#b3b3b3;fill-opacity:1" /><path
           class="planet_inner"
           d="m 150.176,112.071 c -2.98,-3.946 -6.881,-7.214 -11.278,-9.452 -0.772,-0.394 -1.555,-0.75 -2.348,-1.078 2.054,-5.628 3.128,-11.6304 3.128,-17.7981 0,-13.8511 -5.4,-26.8711 -15.205,-36.6649 -9.805,-9.7938 -22.842,-15.1869 -36.7076,-15.1869 -13.8652,0 -26.9024,5.3931 -36.7076,15.1869 -9.8052,9.7938 -15.2045,22.8159 -15.2045,36.6649 0,11.3368 3.6177,22.1171 10.3082,31.0271 -2.4335,0.85 -4.7705,1.987 -6.9588,3.406 -5.1478,3.335 -9.2413,8.027 -11.8362,13.562 -0.2452,0.524 -0.0188,1.148 0.5052,1.393 0.524,0.245 1.1486,0.018 1.3938,-0.505 2.4293,-5.182 6.2608,-9.572 11.0796,-12.695 4.9445,-3.206 10.6876,-4.899 16.6109,-4.899 12.0668,0 23.0332,7.124 27.9358,18.151 l 0.3144,0.708 0.7692,-0.095 c 0.9013,-0.108 1.7481,-0.163 2.5865,-0.163 8.1221,0 15.4161,4.516 19.0361,11.783 0.182,0.368 0.553,0.58 0.939,0.58 0.157,0 0.316,-0.036 0.465,-0.109 0.518,-0.258 0.73,-0.886 0.472,-1.403 -1.905,-3.827 -4.829,-7.059 -8.451,-9.35 -0.493,-0.31 -0.996,-0.601 -1.5052,-0.873 0.0272,-0.006 0.0545,-0.012 0.0817,-0.019 l -0.109,0.005 c -3.3536,-1.778 -7.095,-2.71 -10.9286,-2.71 -0.6833,0 -1.3666,0.032 -2.0751,0.097 -1.4693,-3.107 -3.3997,-5.91 -5.6802,-8.345 3.4081,-2.243 7.4535,-3.515 11.6832,-3.515 0.8405,0 1.6852,0.052 2.5886,0.163 l 0.7693,0.094 0.3144,-0.708 c 4.9029,-11.026 15.8669,-18.151 27.9359,-18.151 9.677,0 18.573,4.432 24.41,12.158 0.348,0.46 1.006,0.552 1.467,0.205 0.461,-0.348 0.554,-1.005 0.206,-1.466 z M 37.5301,83.7408 c 0,-13.4031 5.2254,-26.0044 14.7141,-35.48 9.4886,-9.4755 22.1046,-14.6969 35.5212,-14.6969 13.4166,0 26.0346,5.2193 35.5216,14.6969 9.488,9.4777 14.714,22.079 14.714,35.48 0,5.9605 -1.036,11.7597 -3.016,17.1972 -1.151,-0.409 -2.319,-0.75 -3.505,-1.0242 1.893,-5.1083 2.882,-10.5642 2.882,-16.175 0,-12.4318 -4.846,-24.1203 -13.647,-32.9091 -8.801,-8.791 -20.501,-13.6314 -32.9475,-13.6314 -12.4462,0 -24.1482,4.8404 -32.9473,13.6314 C 46.019,59.6206 41.173,71.307 41.173,83.7388 c 0,10.9327 3.7519,21.2872 10.6415,29.6052 -1.3373,0.212 -2.6578,0.503 -3.9531,0.877 C 41.1646,105.512 37.5343,94.9039 37.5343,83.7388 Z M 94.5628,117.78 c -0.7085,-0.064 -1.3918,-0.096 -2.0751,-0.096 -4.7936,0 -9.3755,1.487 -13.1923,4.099 -5.9464,-5.571 -13.8903,-8.845 -22.3415,-8.845 -1.2324,0 -2.4565,0.071 -3.6701,0.207 C 46.26,104.953 42.4285,94.6422 42.4285,83.7408 c 0,-12.0967 4.7161,-23.4691 13.2783,-32.0214 8.5622,-8.5523 19.9478,-13.2628 32.0586,-13.2628 12.1108,0 23.4966,4.7105 32.0586,13.2628 8.562,8.5523 13.278,19.9247 13.278,32.0214 0,5.5229 -0.985,10.893 -2.869,15.9134 -2.004,-0.3789 -4.054,-0.5736 -6.142,-0.5736 -12.638,0 -24.1456,7.3154 -29.5303,18.6994 z"
           fill="#ffffff"
           id="path1066"
           style="display:inline;fill:#b3b3b3;fill-opacity:1" /></g><path
         class="star"
         d="M 121.914,83.1107 92.8465,81.3123 103.836,68.8847 c 0.295,-0.3349 0.281,-0.8416 -0.036,-1.1556 -0.316,-0.3162 -0.823,-0.3308 -1.157,-0.0356 L 90.2014,78.6702 88.4009,49.6363 c -0.021,-0.3329 -0.2977,-0.5946 -0.633,-0.5946 -0.3354,0 -0.6121,0.2596 -0.633,0.5946 L 85.3344,78.6702 72.8924,67.6935 c -0.3353,-0.2952 -0.8405,-0.2785 -1.157,0.0356 -0.3165,0.3161 -0.3311,0.8227 -0.0356,1.1556 l 10.9894,12.4276 -29.0676,1.7984 c -0.3332,0.0209 -0.5952,0.2972 -0.5952,0.6322 0,0.335 0.2599,0.6113 0.5952,0.6323 l 29.0676,1.7984 -10.9894,12.4275 c -0.2955,0.335 -0.2809,0.8416 0.0356,1.1557 0.3165,0.3162 0.8217,0.3312 1.157,0.0355 l 12.442,-10.9766 1.8005,29.0343 c 0.0209,0.332 0.2976,0.594 0.633,0.594 0.3353,0 0.612,-0.259 0.633,-0.594 l 1.8005,-29.0343 12.4416,10.9766 c 0.16,0.1424 0.361,0.2117 0.56,0.2117 0.216,0 0.434,-0.0839 0.597,-0.2472 0.317,-0.3162 0.331,-0.8207 0.036,-1.1557 L 92.8465,86.1736 121.914,84.3752 c 0.333,-0.021 0.595,-0.2973 0.595,-0.6323 0,-0.335 -0.26,-0.6113 -0.595,-0.6322 z"
         fill="#ffffff"
         id="path1062"
         style="display:inline;fill:#ffd580;fill-opacity:1" /></g></g></svg>
