<svg width="334" height="145" viewBox="0 0 334 145" fill="none" xmlns="http://www.w3.org/2000/svg"><g><title>Weather Planet</title><path class="logo_base" d="M261.484 117.078C261.333 116.75 261.265 116.39 261.265 116.028V104.569C261.265 102.189 260.307 99.8803 258.529 98.287C257.267 97.1572 255.476 96.2559 252.968 96.2559C246.261 96.2559 245.652 100.069 245.652 100.069H247.752C247.752 100.069 247.69 96.6833 253.172 96.6833C256.219 96.6833 257.729 98.5431 258.469 100.198C258.944 101.258 259.163 102.413 259.163 103.574V103.704C259.163 103.955 258.848 104.078 258.682 103.888C256.88 101.818 254.034 100.479 250.83 100.479C245.382 100.479 240.966 104.34 240.966 109.103C240.966 113.866 245.382 117.727 250.83 117.727C254.081 117.727 256.961 116.352 258.756 114.232C258.895 114.067 259.163 114.162 259.163 114.376V114.564C259.163 117.725 262.249 117.725 262.249 117.725C261.877 117.725 261.635 117.403 261.482 117.075L261.484 117.078ZM250.83 117.391C246.407 117.391 242.821 113.578 242.821 109.103C242.821 104.628 246.407 100.815 250.83 100.815C255.253 100.815 258.839 104.628 258.839 109.103C258.839 113.578 255.253 117.391 250.83 117.391ZM108.881 117.078C108.73 116.75 108.662 116.39 108.662 116.028V104.569C108.662 102.189 107.704 99.8803 105.926 98.287C104.664 97.1572 102.873 96.2559 100.365 96.2559C93.6577 96.2559 93.0493 100.069 93.0493 100.069H95.149C95.149 100.069 95.0873 96.6833 100.569 96.6833C103.616 96.6833 105.126 98.5431 105.866 100.198C106.341 101.258 106.56 102.413 106.56 103.574V103.704C106.56 103.955 106.245 104.078 106.079 103.888C104.277 101.818 101.431 100.479 98.2272 100.479C92.7792 100.479 88.3629 104.34 88.3629 109.103C88.3629 113.866 92.7792 117.727 98.2272 117.727C101.478 117.727 104.358 116.352 106.154 114.232C106.292 114.067 106.56 114.162 106.56 114.376V114.564C106.56 117.725 109.647 117.725 109.647 117.725C109.274 117.725 109.032 117.403 108.879 117.075L108.881 117.078ZM98.2272 117.391C93.8045 117.391 90.2179 113.578 90.2179 109.103C90.2179 104.628 93.8045 100.815 98.2272 100.815C102.65 100.815 106.237 104.628 106.237 109.103C106.237 113.578 102.65 117.391 98.2272 117.391ZM281.725 103.754V117.729H279.625V103.602C279.625 100.151 276.951 97.2038 273.486 97.0324C273.356 97.026 273.224 97.0218 273.095 97.0218C272.216 97.0218 271.369 97.1699 270.567 97.4407C268.002 98.4796 266.996 100.71 266.996 102.381V117.729H264.896V96.258H266.996V97.8977C266.996 98.0987 267.215 98.2278 267.389 98.1284C269.055 97.1657 271.008 96.6092 273.097 96.6092C275.328 96.6092 277.085 97.1128 278.417 97.9189C280.7 99.3005 281.727 101.575 281.727 103.754H281.725ZM236.222 117.729V82.245H238.321V117.729H236.222ZM121.26 111.109V113.303C121.26 115.719 119.313 117.683 116.897 117.727C114.403 117.774 112.363 115.668 112.363 113.187V96.6071H114.463V98.1009C114.463 98.3082 114.633 98.4775 114.842 98.4775H119.651V99.0382H114.842C114.633 99.0382 114.463 99.2074 114.463 99.4148V114.828C114.463 116.17 115.601 117.247 116.969 117.16C118.218 117.08 119.162 115.994 119.162 114.748V112.672L121.262 111.107L121.26 111.109ZM140.735 103.754V117.729H138.636V103.602C138.636 100.151 135.961 97.2038 132.496 97.0324C132.366 97.026 132.234 97.0218 132.105 97.0218C131.226 97.0218 130.379 97.1699 129.577 97.4407C127.012 98.4796 126.006 100.71 126.006 102.381V117.729H123.906V89.4938H126.006V97.8999C126.006 98.1009 126.225 98.2299 126.399 98.1305C128.065 97.1678 130.018 96.6113 132.107 96.6113C134.338 96.6113 136.096 97.1149 137.427 97.921C139.71 99.3026 140.737 101.577 140.737 103.756L140.735 103.754ZM165.467 107.169C165.467 113 160.523 117.729 154.424 117.729C148.325 117.729 143.382 113.002 143.382 107.169C143.382 101.336 148.325 96.6092 154.424 96.6092C158.366 96.6092 161.823 98.5854 163.776 101.556L163.7 101.6L150.078 109.48L149.657 108.754L161.17 102.093C161.591 101.85 161.711 101.298 161.432 100.9C159.79 98.5579 157.262 97.0218 154.422 97.0218C149.47 97.0218 145.456 101.689 145.456 107.169C145.456 112.649 149.47 117.317 154.422 117.317C159.375 117.317 163.389 112.649 163.389 107.169C163.389 106.714 163.359 106.266 163.306 105.824L165.174 104.751C165.365 105.527 165.467 106.336 165.467 107.169ZM170.213 97.8956C170.213 98.0966 170.432 98.2257 170.607 98.1241C172.273 97.1614 174.225 96.6071 176.315 96.6071C178.546 96.6071 180.303 97.1107 181.635 97.9168C183.918 99.2984 184.945 101.573 184.945 103.752V104.271H182.845V103.6C182.845 100.149 180.171 97.2016 176.706 97.0303C176.576 97.0239 176.444 97.0197 176.315 97.0197C175.436 97.0197 174.589 97.1678 173.787 97.4386C171.222 98.4775 170.215 100.708 170.215 102.379V102.292V117.727H168.116V96.6071H170.215V97.8935L170.213 97.8956ZM318 111.109V113.303C318 115.719 316.053 117.683 313.637 117.727C311.144 117.774 309.104 115.668 309.104 113.187V96.6071H311.203V98.1009C311.203 98.3082 311.373 98.4775 311.582 98.4775H316.392V99.0382H311.582C311.373 99.0382 311.203 99.2074 311.203 99.4148V114.828C311.203 116.17 312.341 117.247 313.709 117.16C314.958 117.08 315.902 115.994 315.902 114.748V112.672L318.002 111.107L318 111.109ZM306.487 107.169C306.487 113 301.543 117.729 295.444 117.729C289.345 117.729 284.401 113.002 284.401 107.169C284.401 101.336 289.345 96.6092 295.444 96.6092C299.386 96.6092 302.843 98.5854 304.796 101.556L304.719 101.6L291.098 109.48L290.677 108.754L302.19 102.093C302.611 101.85 302.73 101.298 302.451 100.9C300.809 98.5579 298.282 97.0218 295.442 97.0218C290.49 97.0218 286.475 101.689 286.475 107.169C286.475 112.649 290.49 117.317 295.442 117.317C300.394 117.317 304.409 112.649 304.409 107.169C304.409 106.714 304.379 106.266 304.326 105.824L306.193 104.751C306.385 105.527 306.487 106.336 306.487 107.169ZM85.7377 107.169C85.7377 113 80.7939 117.729 74.6949 117.729C68.5959 117.729 63.652 113.002 63.652 107.169C63.652 101.336 68.5959 96.6092 74.6949 96.6092C78.6368 96.6092 82.0937 98.5854 84.0465 101.556L83.9699 101.6L70.3488 109.48L69.9276 108.754L81.4406 102.093C81.8618 101.85 81.9809 101.298 81.7022 100.9C80.0599 98.5579 77.5327 97.0218 74.6927 97.0218C69.7404 97.0218 65.7261 101.689 65.7261 107.169C65.7261 112.649 69.7404 117.317 74.6927 117.317C79.6451 117.317 83.6594 112.649 83.6594 107.169C83.6594 106.714 83.6296 106.266 83.5764 105.824L85.4442 104.751C85.6356 105.527 85.7377 106.336 85.7377 107.169ZM166.905 60.2914C147.757 67.701 130.696 69.7787 128.801 64.9293C127.837 62.4686 130.969 58.6961 136.789 54.6063C136.825 55.1902 136.878 55.77 136.953 56.3455C133.551 59.1722 131.869 61.7027 132.56 63.4736C134.251 67.7962 149.461 65.9449 166.533 59.3372C183.605 52.7296 196.073 43.8707 194.382 39.5481C193.569 37.4725 189.638 36.8208 183.881 37.4365C183.564 37.0155 183.233 36.6029 182.888 36.2009C191.216 34.832 197.075 35.3694 198.143 38.0946C200.04 42.944 186.055 52.8819 166.908 60.2914H166.905ZM194.267 67.9676C194.035 68.1432 193.703 68.0966 193.527 67.8639C190.585 63.9856 186.1 61.7619 181.222 61.7619C175.138 61.7619 169.611 65.3376 167.139 70.8726L166.98 71.228L166.593 71.1815C166.137 71.1265 165.712 71.099 165.289 71.099C163.157 71.099 161.117 71.7379 159.4 72.8636C160.549 74.0865 161.523 75.4914 162.264 77.0528C162.621 77.0211 162.966 77.0042 163.31 77.0042C165.242 77.0042 167.129 77.4718 168.82 78.3646H168.875C168.863 78.3646 168.848 78.3689 168.833 78.371C169.09 78.5064 169.343 78.6524 169.592 78.809C171.42 79.9578 172.892 81.5807 173.853 83.5018C173.983 83.7621 173.877 84.0773 173.615 84.2064C173.538 84.2445 173.46 84.2614 173.381 84.2614C173.187 84.2614 173 84.1556 172.907 83.9694C171.081 80.3218 167.405 78.0536 163.31 78.0536C162.887 78.0536 162.459 78.0811 162.006 78.1361L161.619 78.1827L161.459 77.8272C158.988 72.2923 153.461 68.7166 147.377 68.7166C144.392 68.7166 141.497 69.5671 139.004 71.1751C136.574 72.7429 134.643 74.9455 133.417 77.5479C133.294 77.8103 132.979 77.9246 132.715 77.8018C132.451 77.6791 132.337 77.366 132.46 77.1036C133.768 74.3235 135.832 71.9707 138.427 70.295C139.531 69.5841 140.708 69.0128 141.935 68.5854C138.563 64.1126 136.738 58.7025 136.738 53.011C136.738 46.0584 139.461 39.5227 144.403 34.6077C149.344 29.6927 155.918 26.9845 162.906 26.9845C169.894 26.9845 176.468 29.6927 181.409 34.6077C186.351 39.5227 189.074 46.0606 189.074 53.011C189.074 56.1064 188.534 59.1193 187.498 61.946C187.898 62.111 188.291 62.2909 188.681 62.4877C190.897 63.6111 192.863 65.2509 194.367 67.2334C194.543 67.464 194.497 67.7941 194.263 67.9697L194.267 67.9676ZM142.79 68.3125C143.443 68.1242 144.109 67.9782 144.783 67.8724C141.31 63.6979 139.418 58.4994 139.418 53.011C139.418 46.7715 141.863 40.9043 146.298 36.4908C150.734 32.0793 156.633 29.6483 162.908 29.6483C169.184 29.6483 175.081 32.0793 179.518 36.4908C183.954 40.9022 186.398 46.7693 186.398 53.011C186.398 55.8271 185.898 58.565 184.945 61.1293C185.543 61.2668 186.132 61.4382 186.713 61.6434C187.713 58.9141 188.234 56.0027 188.234 53.011C188.234 46.2827 185.6 39.9586 180.816 35.2001C176.034 30.4438 169.673 27.8223 162.91 27.8223C156.148 27.8223 149.787 30.4417 145.003 35.2001C140.22 39.9565 137.585 46.2827 137.585 53.011C137.585 58.6157 139.414 63.9391 142.79 68.3125ZM181.222 60.7104C182.275 60.7104 183.307 60.8077 184.317 60.9981C185.266 58.4782 185.764 55.7827 185.764 53.011C185.764 46.9386 183.386 41.2302 179.069 36.9372C174.753 32.6442 169.014 30.2788 162.908 30.2788C156.803 30.2788 151.063 32.6442 146.747 36.9372C142.431 41.2302 140.052 46.9386 140.052 53.011C140.052 58.4824 141.984 63.6577 145.524 67.7708C146.134 67.7031 146.753 67.6671 147.372 67.6671C151.633 67.6671 155.637 69.3111 158.634 72.1082C160.56 70.7964 162.868 70.0495 165.284 70.0495C165.629 70.0495 165.974 70.0665 166.331 70.0982C169.045 64.3834 174.847 60.7125 181.218 60.7125L181.222 60.7104Z" fill="#B3B3B3"></path><path d="M180.422 53.011C180.422 53.1781 180.29 53.3178 180.122 53.3283L165.469 54.2318L171.009 60.4692C171.158 60.6363 171.149 60.8902 170.992 61.0489C170.909 61.1314 170.801 61.1737 170.69 61.1737C170.59 61.1737 170.488 61.1378 170.407 61.068L164.136 55.5584L163.227 70.1321C163.217 70.2992 163.076 70.4304 162.908 70.4304C162.74 70.4304 162.6 70.2992 162.589 70.1321L161.681 55.5584L155.409 61.068C155.241 61.2161 154.986 61.2076 154.827 61.051C154.667 60.8923 154.658 60.6384 154.809 60.4713L160.349 54.2339L145.696 53.3305C145.528 53.3199 145.396 53.1802 145.396 53.0131C145.396 52.8459 145.528 52.7063 145.696 52.6957L160.349 51.7923L154.809 45.5549C154.661 45.3877 154.669 45.1338 154.827 44.9752C154.986 44.8165 155.241 44.8101 155.409 44.9582L161.681 50.4678L162.589 35.8941C162.6 35.727 162.74 35.5958 162.908 35.5958C163.076 35.5958 163.217 35.727 163.227 35.8941L164.136 50.4678L170.407 44.9582C170.575 44.8101 170.83 44.8186 170.99 44.9752C171.149 45.1338 171.158 45.3877 171.007 45.5549L165.467 51.7923L180.12 52.6957C180.288 52.7063 180.42 52.8459 180.42 53.0131L180.422 53.011ZM233.107 88.6369C235.928 95.93 225.785 106.647 210.279 112.986V117.727H208.18V113.804C192.074 119.79 176.834 118.69 173.962 111.263C171.054 103.742 181.935 92.5765 198.268 86.3285C214.602 80.0806 230.199 81.1131 233.11 88.6369H233.107ZM230.601 89.5953C227.787 82.317 213.385 81.0538 198.436 86.7729C183.486 92.4919 173.649 103.029 176.463 110.307C179.25 117.511 193.39 118.821 208.177 113.299V96.6113H210.277V112.471C224.294 106.632 233.312 96.605 230.601 89.5975V89.5953ZM316.528 95.0372L296.274 104.869L290.849 97.6756L294.144 106.05L275.077 118.002L295.331 108.17L300.756 115.364L297.461 106.989L316.528 95.0372Z" fill="#FFD580"></path><path d="M121.436 45.2016C121.296 45.2016 121.155 45.1466 121.051 45.0366C120.851 44.825 120.86 44.4928 121.072 44.294L125.436 40.1999C125.648 40.001 125.982 40.0094 126.182 40.221C126.382 40.4326 126.374 40.7648 126.161 40.9637L121.798 45.0578C121.696 45.153 121.566 45.2016 121.436 45.2016ZM129.914 37.225L142.609 25.0613C142.82 24.8603 142.826 24.5281 142.624 24.3186C142.422 24.1092 142.088 24.1028 141.878 24.3038L129.182 36.4676C128.971 36.6686 128.965 37.0008 129.167 37.2102C129.271 37.3181 129.409 37.371 129.548 37.371C129.686 37.371 129.811 37.3224 129.914 37.225ZM131.666 42.102L142.609 31.6287C142.82 31.4277 142.826 31.0956 142.624 30.8861C142.422 30.6766 142.088 30.6703 141.878 30.8713L130.935 41.3445C130.724 41.5455 130.718 41.8777 130.92 42.0872C131.024 42.1951 131.162 42.248 131.301 42.248C131.439 42.248 131.564 42.1993 131.666 42.102ZM146.628 27.7822L156.947 17.9035C157.158 17.7025 157.164 17.3703 156.962 17.1609C156.76 16.9514 156.426 16.9451 156.216 17.1461L145.896 27.0248C145.685 27.2258 145.679 27.5579 145.881 27.7674C145.985 27.8753 146.124 27.9282 146.262 27.9282C146.4 27.9282 146.526 27.8795 146.628 27.7822ZM128.127 51.9764L137.342 43.3291C137.555 43.1303 137.563 42.7981 137.363 42.5865C137.163 42.3749 136.829 42.3665 136.617 42.5653L127.401 51.2126C127.188 51.4115 127.18 51.7437 127.38 51.9553C127.484 52.0653 127.625 52.1203 127.765 52.1203C127.895 52.1203 128.024 52.0738 128.127 51.9764ZM152.757 28.6285L156.792 25.074C157.011 24.8815 157.03 24.5493 156.837 24.3313C156.643 24.1134 156.309 24.0944 156.09 24.2869L152.055 27.8415C151.836 28.034 151.816 28.3662 152.01 28.5841C152.114 28.7005 152.259 28.7618 152.406 28.7618C152.531 28.7618 152.655 28.7174 152.757 28.6307V28.6285ZM120.743 66.1925L129.254 58.2054C129.467 58.0065 129.475 57.6743 129.275 57.4627C129.075 57.2511 128.741 57.2427 128.529 57.4416L120.017 65.4287C119.805 65.6276 119.796 65.9598 119.996 66.1714C120.1 66.2814 120.241 66.3364 120.381 66.3364C120.511 66.3364 120.641 66.2898 120.743 66.1925ZM137.291 49.2174L132.93 53.3094C132.717 53.5083 132.709 53.8405 132.909 54.052C133.013 54.1621 133.153 54.2171 133.294 54.2171C133.424 54.2171 133.553 54.1705 133.655 54.0732L137.18 50.7641L137.289 49.2174H137.291ZM119.56 74.0929L127.076 66.9415C127.286 66.7405 127.295 66.4083 127.093 66.1989C126.891 65.9894 126.557 65.9809 126.346 66.1819L118.83 73.3334C118.62 73.5344 118.611 73.8665 118.813 74.076C118.917 74.1839 119.056 74.2389 119.194 74.2389C119.326 74.2389 119.458 74.1903 119.56 74.0929ZM128.127 72.5886L131.632 69.2985C131.845 69.0996 131.854 68.7675 131.654 68.5559C131.454 68.3443 131.12 68.3358 130.907 68.5347L127.401 71.8248C127.188 72.0237 127.18 72.3559 127.38 72.5674C127.484 72.6775 127.625 72.7325 127.765 72.7325C127.895 72.7325 128.024 72.6859 128.127 72.5886ZM136.778 64.4681L137.997 63.3404C138.21 63.1436 138.223 62.8093 138.025 62.5978C137.827 62.3862 137.491 62.3735 137.278 62.5703L136.059 63.698C135.847 63.8948 135.834 64.2291 136.032 64.4406C136.136 64.5528 136.276 64.6078 136.419 64.6078C136.549 64.6078 136.676 64.5612 136.778 64.4681ZM130.513 55.6876C130.184 55.6876 129.916 55.9541 129.916 56.2821C129.916 56.61 130.184 56.8766 130.513 56.8766C130.843 56.8766 131.111 56.61 131.111 56.2821C131.111 55.9541 130.843 55.6876 130.513 55.6876ZM131.809 54.4011C131.479 54.4011 131.211 54.6677 131.211 54.9957C131.211 55.3236 131.479 55.5902 131.809 55.5902C132.139 55.5902 132.407 55.3236 132.407 54.9957C132.407 54.6677 132.139 54.4011 131.809 54.4011ZM126.993 38.7548C126.663 38.7548 126.395 39.0214 126.395 39.3493C126.395 39.6773 126.663 39.9439 126.993 39.9439C127.322 39.9439 127.591 39.6773 127.591 39.3493C127.591 39.0214 127.322 38.7548 126.993 38.7548ZM128.286 37.4663C127.956 37.4663 127.688 37.7328 127.688 38.0608C127.688 38.3887 127.956 38.6553 128.286 38.6553C128.616 38.6553 128.884 38.3887 128.884 38.0608C128.884 37.7328 128.616 37.4663 128.286 37.4663ZM143.601 29.46C143.271 29.46 143.003 29.7266 143.003 30.0546C143.003 30.3825 143.271 30.6491 143.601 30.6491C143.93 30.6491 144.198 30.3825 144.198 30.0546C144.198 29.7266 143.93 29.46 143.601 29.46ZM144.896 28.1715C144.566 28.1715 144.298 28.4381 144.298 28.7661C144.298 29.094 144.566 29.3606 144.896 29.3606C145.226 29.3606 145.494 29.094 145.494 28.7661C145.494 28.4381 145.226 28.1715 144.896 28.1715ZM129.911 42.3643C129.582 42.3643 129.314 42.6309 129.314 42.9589C129.314 43.2868 129.582 43.5534 129.911 43.5534C130.241 43.5534 130.509 43.2868 130.509 42.9589C130.509 42.6309 130.241 42.3643 129.911 42.3643ZM172.096 22.6662C171.766 22.6662 171.498 22.9328 171.498 23.2607C171.498 23.5887 171.766 23.8553 172.096 23.8553C172.426 23.8553 172.694 23.5887 172.694 23.2607C172.694 22.9328 172.426 22.6662 172.096 22.6662ZM183.088 25.969C182.758 25.969 182.49 26.2356 182.49 26.5635C182.49 26.8915 182.758 27.1581 183.088 27.1581C183.418 27.1581 183.686 26.8915 183.686 26.5635C183.686 26.2356 183.418 25.969 183.088 25.969ZM184.381 24.6804C184.052 24.6804 183.784 24.947 183.784 25.275C183.784 25.6029 184.052 25.8695 184.381 25.8695C184.711 25.8695 184.979 25.6029 184.979 25.275C184.979 24.947 184.711 24.6804 184.381 24.6804ZM157.866 22.6662C157.537 22.6662 157.269 22.9328 157.269 23.2607C157.269 23.5887 157.537 23.8553 157.866 23.8553C158.196 23.8553 158.464 23.5887 158.464 23.2607C158.464 22.9328 158.196 22.6662 157.866 22.6662ZM159.162 21.3798C158.832 21.3798 158.564 21.6464 158.564 21.9743C158.564 22.3023 158.832 22.5689 159.162 22.5689C159.492 22.5689 159.76 22.3023 159.76 21.9743C159.76 21.6464 159.492 21.3798 159.162 21.3798ZM178.15 31.8488L181.688 28.5566C181.901 28.3577 181.911 28.0255 181.714 27.814C181.514 27.6024 181.18 27.5918 180.967 27.7886L177.259 31.2394C177.559 31.4362 177.857 31.6393 178.15 31.8488ZM173.453 29.1744L182.35 20.8826C182.562 20.6837 182.573 20.3515 182.373 20.1399C182.173 19.9284 181.839 19.9178 181.626 20.1167L172.379 28.7343C172.739 28.874 173.096 29.02 173.451 29.1765L173.453 29.1744ZM168.356 27.5474L171.003 25.0634C171.215 24.8645 171.224 24.5323 171.024 24.3208C170.824 24.1092 170.49 24.1007 170.277 24.2996L167.067 27.3104C167.499 27.3781 167.929 27.4585 168.354 27.5474H168.356ZM161.428 27.0269L171.145 17.9078C171.358 17.7089 171.366 17.3767 171.166 17.1651C170.966 16.9535 170.632 16.9451 170.42 17.144L159.732 27.1729C160.294 27.1052 160.86 27.0565 161.428 27.0248V27.0269ZM65.9346 89.6885H67.5471V89.1278H62.3586V89.6885H64.4625C64.5604 89.6885 64.6242 89.7901 64.5816 89.8768L53.0963 113.682C52.9197 114.048 52.3964 114.048 52.2198 113.682L43.7127 96.0486H40.3622V96.6093H40.9067C41.0812 96.6093 41.1982 96.7913 41.1216 96.9478L33.0506 113.684C32.874 114.05 32.3507 114.05 32.1741 113.684L20.6866 89.8747C20.6441 89.788 20.7079 89.6864 20.8058 89.6864H22.1864V89.1257H17V89.6864H18.1636C18.3679 89.6864 18.5529 89.8028 18.6402 89.9847L31.5615 116.764L32.0252 117.727L33.0761 115.55L41.7938 97.481C41.896 97.2673 42.2023 97.2673 42.3044 97.481L51.6071 116.764L52.0709 117.727L53.1218 115.552L65.4559 89.9868C65.5432 89.8049 65.7304 89.6885 65.9325 89.6885H65.9346ZM76.7116 106.989L80.0068 115.364L74.5821 108.17L54.328 118.002L73.3951 106.05L70.0999 97.6757L75.5245 104.869L95.7787 95.0373L76.7116 106.989Z" fill="#66C1FF"></path></g></svg>